<?xml version="1.0" standalone="no"?>
<!DOCTYPE svg PUBLIC "-//W3C//DTD SVG 20010904//EN"
 "http://www.w3.org/TR/2001/REC-SVG-20010904/DTD/svg10.dtd">
<svg version="1.0" xmlns="http://www.w3.org/2000/svg"
 width="32.000000pt" height="32.000000pt" viewBox="0 0 32.000000 32.000000"
 preserveAspectRatio="xMidYMid meet">

<g transform="translate(0.000000,32.000000) scale(0.100000,-0.100000)"
fill="#000000" stroke="none">
<path d="M0 160 l0 -160 160 0 160 0 0 160 0 160 -160 0 -160 0 0 -160z m157
100 c7 -26 19 -26 26 1 9 33 38 19 64 -31 13 -25 28 -49 33 -54 16 -16 12 -56
-5 -56 -11 0 -15 -11 -15 -40 0 -29 -4 -40 -15 -40 -8 0 -15 9 -15 20 0 25
-34 60 -59 60 -27 0 -51 -27 -51 -56 0 -17 -5 -24 -20 -24 -17 0 -20 7 -20 45
0 25 -4 45 -10 45 -5 0 -10 20 -10 44 0 30 -5 46 -15 50 -23 8 -18 33 8 40 39
10 47 7 47 -21 l1 -28 14 33 c16 36 34 42 42 12z"/>
</g>
</svg>
